<svg width="1452" height="2202" viewBox="0 0 1452 2202" fill="none" xmlns="http://www.w3.org/2000/svg">
<g filter="url(#filter0_d_0_1)">
<mask id="path-1-inside-1_0_1" fill="white">
<path d="M935 2192.81C930.83 2190.93 924.649 2185.19 921.571 2180.33C920.352 2178.4 918.547 2173.9 917.56 2170.32C916.573 2166.75 914.539 2161.34 913.039 2158.31C909.529 2151.23 906.378 2131.75 905.027 2108.78C904.121 2093.38 903.69 2090.78 900.47 2081.26C898.513 2075.48 896.286 2068.05 895.519 2064.75C894.752 2061.45 893.687 2056.95 893.152 2054.74C892.617 2052.54 891.862 2046.46 891.474 2041.24C890.939 2034.01 889.918 2029.45 887.219 2022.22C885.266 2016.99 883.351 2009.79 882.963 2006.21C882.523 2002.16 880.924 1996.74 878.713 1991.84C873.695 1980.69 873.239 1974.83 876.563 1964.18C881.321 1948.94 880.981 1926.67 875.455 1891.63C872.665 1873.95 864.816 1830.34 861.854 1816.08C857.69 1796.04 856.443 1791.48 846.066 1758.39C837.237 1730.23 836.676 1724.34 833.138 1622.45L832.27 1597.44L827.026 1583.93C824.141 1576.51 820.193 1567.28 818.25 1563.42C812.716 1552.43 805.359 1530.32 803.079 1517.83C801.623 1509.86 800.995 1502.24 800.982 1492.4C800.972 1484.68 800.534 1474.3 800.007 1469.35C799.481 1464.4 798.563 1452.46 797.967 1442.83C797.372 1433.2 796.023 1419.24 794.97 1411.81C792.531 1394.59 781.542 1341.35 774.007 1310.24C770.432 1295.48 767.308 1279.54 765.902 1268.89C764.643 1259.36 763.138 1250.93 762.557 1250.16C761.688 1249.01 760.291 1249.54 754.702 1253.16C749.224 1256.7 746.7 1257.68 741.702 1258.21C738.029 1258.6 734.364 1258.43 732.714 1257.8C730.605 1256.99 729.84 1257.03 729.564 1257.97C729.363 1258.65 728.006 1268.21 726.547 1279.22C725.089 1290.23 722.357 1306.21 720.478 1314.74C715.764 1336.14 710.225 1371.13 709.033 1387.04C708.487 1394.34 707.378 1404.81 706.57 1410.31C705.044 1420.69 702.961 1467.95 702.953 1492.36C702.946 1513.95 701.648 1523.46 696.6 1538.9C694.17 1546.33 690.292 1556.91 687.981 1562.41C685.67 1567.92 682.479 1577.04 680.89 1582.69C676.802 1597.21 676.84 1600.1 682.023 1669.55C682.601 1677.3 683.072 1690.36 683.07 1698.57C683.066 1719.48 681.373 1729.34 668.999 1780.56C666.871 1789.37 664.384 1800.62 663.472 1805.58C662.56 1810.53 660.913 1818.86 659.813 1824.09C658.713 1829.32 657.436 1836.3 656.974 1839.6C656.513 1842.9 655.225 1850.56 654.113 1856.61C651.374 1871.52 649 1898.39 649 1914.48C649 1925.3 649.456 1929.5 651.508 1937.6C655.233 1952.29 655.575 1959.22 652.991 1967.69C645.315 1992.83 643.962 2000.35 643.011 2023.22C642.299 2040.32 641.864 2043.79 639.487 2051.24C637.996 2055.92 635.752 2061.77 634.501 2064.25C631.268 2070.65 629.803 2081.56 629.957 2098.08C630.03 2105.95 629.649 2113.83 629.11 2115.59C628.571 2117.35 626.949 2123.47 625.505 2129.2C624.062 2134.93 621.962 2141.42 620.84 2143.62C619.717 2145.82 618.139 2149.92 617.332 2152.72C616.525 2155.52 614.266 2160.18 612.313 2163.06C609.291 2167.53 608.005 2168.54 603.699 2169.82C593.16 2172.95 584.523 2171.1 580.422 2164.84C578.113 2161.31 578.893 2150.39 581.87 2144.56C583.581 2141.2 583.737 2140.3 582.606 2140.3C580.898 2140.3 574.656 2151.14 573.099 2156.81C572.495 2159.01 571.663 2161.32 571.25 2161.93C569.974 2163.82 564.247 2166.32 561.198 2166.32C557.062 2166.32 551.684 2162.39 550.543 2158.54C549.787 2155.99 549.048 2155.31 547.016 2155.31C543.508 2155.31 540.06 2152.7 538.437 2148.81C537.487 2146.54 536.235 2145.4 534.231 2145C530.859 2144.33 529 2140.91 529 2135.37C529 2133.02 528.359 2131.01 527.338 2130.17C524.36 2127.71 521 2118.58 521 2112.95C521 2106.6 526.51 2081.78 528.7 2078.26C529.557 2076.88 531.298 2074.63 532.568 2073.26C533.838 2071.88 536.688 2067.15 538.9 2062.75C541.113 2058.35 546.079 2050.92 549.936 2046.24C557.423 2037.16 559.377 2034.44 565.736 2024.22C568.504 2019.78 570.117 2015.76 570.83 2011.54C571.529 2007.4 574.012 2001.13 578.363 1992.53C585.414 1978.58 586.058 1975.55 584.597 1963.18C583.816 1956.57 584.19 1954.55 590.518 1931.19C592.758 1922.92 592.364 1915.32 588.057 1883.63C585.888 1867.67 583.163 1844.93 582.001 1833.09C580.84 1821.26 579.029 1803.93 577.977 1794.57C576.925 1785.21 575.577 1772.83 574.983 1767.05C574.389 1761.27 572.284 1745.06 570.306 1731.03C567.056 1707.96 566.7 1703.25 566.605 1681.99C566.503 1659.21 566.742 1655.82 571.085 1618.45C572.434 1606.84 574.331 1595.29 578.156 1575.42C581.163 1559.8 581.217 1559.01 580.369 1542.9C579.891 1533.82 579.5 1513.1 579.5 1496.87C579.5 1464.57 580.037 1468.57 572.857 1447.33C569.324 1436.88 565.154 1413.66 560.95 1381.03C559.835 1372.37 557.814 1358.69 556.461 1350.63C555.107 1342.58 554 1334.46 554 1332.59C554 1330.72 552.899 1323.35 551.553 1316.21C550.208 1309.08 548.181 1296.48 547.049 1288.23C545.917 1279.97 544.312 1268.71 543.484 1263.21C537.368 1222.6 528.881 1138.22 530.433 1133.46C530.672 1132.72 531.114 1117.26 531.416 1099.1C532.372 1041.6 535.577 1012.04 543.089 991.446C549.251 974.549 551.21 958.378 551.503 921.979C551.699 897.664 551.835 896.681 560.142 859.437C566.094 832.75 567.391 819.084 567.457 782.385C567.502 756.785 567.362 676.298 564 655.228C559.877 635.786 559.5 540.984 559.5 565C559.5 578.604 560.5 732.28 539.368 786.388C536.97 794.943 536.684 797.747 536.511 814.407C536.405 824.589 535.815 834.946 535.199 837.422C533.607 843.824 524.21 871.179 521.965 875.948C518.703 882.878 512.32 898.63 509.193 907.47C495.303 946.731 482.265 979.673 471.766 1002.03C457.919 1031.53 451.354 1047.99 438.051 1086.59C429.541 1111.28 423.373 1128.76 421.977 1132.12C421.52 1133.22 420.912 1136.15 420.625 1138.63C420.339 1141.1 419.583 1146.51 418.946 1150.63C418.259 1155.09 418.072 1161.19 418.486 1165.64C420.138 1183.39 420.406 1180.63 413.483 1217.18C409.292 1239.3 409.189 1237.06 416.042 1273.22C417.085 1278.72 418.065 1288.33 418.219 1294.56C418.5 1305.89 418.498 1305.9 415.694 1308.32C414.134 1309.67 411.614 1310.74 410.017 1310.74C405.103 1310.74 403.516 1307.38 401.089 1291.85C399.889 1284.17 398.034 1274.83 396.967 1271.1C395.9 1267.36 394.302 1260.37 393.417 1255.55C391.471 1244.95 389.81 1242.94 386.462 1247.14C385.196 1248.73 383.917 1251.42 383.619 1253.12C383.321 1254.82 382.797 1268.81 382.455 1284.22C381.585 1323.33 380.921 1330.29 377.756 1333.46C374.787 1336.43 369.27 1336.82 365.477 1334.33C362.615 1332.46 362.494 1330.82 364.054 1315.25C364.853 1307.26 364.714 1302.24 363.366 1290.4C361.97 1278.14 361.88 1274.23 362.845 1267.89C364.223 1258.83 364.341 1252.7 363.137 1252.7C362.662 1252.7 362.01 1255.52 361.687 1258.96C361.365 1262.4 360.613 1269.49 360.018 1274.72C359.422 1279.95 358.757 1296.07 358.538 1310.56C358.214 1332.08 357.861 1337.32 356.605 1339.24C353.757 1343.59 345.117 1343.71 341.254 1339.46C339.474 1337.5 339.164 1335.14 338.398 1317.75C337.322 1293.31 337.277 1276.91 338.267 1269.39C338.778 1265.52 338.694 1263.78 338.017 1264.2C337.458 1264.55 337 1266.13 337 1267.71C337 1269.3 336.55 1270.88 336 1271.22C335.382 1271.6 335 1280.24 335 1293.82C335 1317.19 334.308 1321.44 330.15 1323.67C326.509 1325.62 322.23 1324.93 318.766 1321.83L315.5 1318.91L314.884 1296.56C314.545 1284.27 314.667 1270.84 315.155 1266.71C315.643 1262.58 316.998 1251.1 318.167 1241.2C320.431 1222.01 321.613 1202.67 320.521 1202.67C319.837 1202.67 309.78 1211.31 302.666 1218.01C295.514 1224.74 286.912 1227.71 274.701 1227.65C266.486 1227.61 263 1225.71 263 1221.26C263 1219.19 263.785 1218.31 266.75 1217.05C276.831 1212.75 279 1211.62 279 1210.68C279 1210.12 283.806 1204.82 289.679 1198.92C295.553 1193.01 302.335 1185.47 304.752 1182.16C312.513 1171.54 313.277 1170.65 314.577 1170.65C315.28 1170.65 316.804 1169.44 317.963 1167.96C319.123 1166.49 322.029 1163.9 324.421 1162.21C335.239 1154.57 350.943 1140.4 353.601 1135.88C358.206 1128.05 359.999 1123.87 360.019 1120.91C360.036 1118.37 361.488 1112.4 367.031 1092.09C368.083 1088.24 369.857 1081.74 370.974 1077.64C372.091 1073.55 373.688 1066.26 374.522 1061.45C375.356 1056.64 377.571 1048.46 379.445 1043.28C384.885 1028.24 387.728 1014.4 395.523 965.008C400.908 930.887 403.798 914.247 406.474 901.966C407.794 895.912 410.289 882.853 412.019 872.946C414.972 856.04 420.612 833.927 425.164 821.411C426.264 818.384 428.881 810.954 430.979 804.9C433.077 798.846 436.14 790.966 437.786 787.389C446.39 768.694 449.819 754.559 452.958 724.846C454.121 713.839 456.179 695.827 457.531 684.819C464.367 629.151 464.503 627.221 464.233 589.255C463.841 534.211 465.548 514.187 473.617 479.18C478.263 459.021 483.227 443.777 486.974 438.157C494.137 427.414 503.896 419.929 518.083 414.298C525.793 411.237 529.192 409.505 539 403.638C542.025 401.828 548.922 398.701 554.327 396.689C577.552 388.045 632.414 361.665 646.5 352.368C656.153 345.998 662.35 339.886 664.586 334.531C666.755 329.336 669.005 313.333 669.515 299.464C669.962 287.305 669.875 286.594 667.136 280.19C661.088 266.05 657.797 254.412 654.55 235.684C652.885 226.083 652.495 225.009 650.673 225.009C650.008 225.009 647.731 223.83 645.612 222.389C640.491 218.907 635.09 207.271 631.608 192.218C628.62 179.297 628.403 174.363 630.476 166.399C632.037 160.403 633.074 158.635 636.817 155.593C638.817 153.967 639.04 153.147 638.451 149.583C638.075 147.312 637.372 144.7 636.888 143.776C636.403 142.853 635.518 136.324 634.92 129.267C634.323 122.209 633.355 115.442 632.771 114.227C632.018 112.662 632.033 109.166 632.824 102.219C633.537 95.9526 633.59 92.2988 632.97 92.0856C631.726 91.6579 631.706 88.2162 632.942 87.4515C633.46 87.131 634.158 84.7403 634.493 82.1389C634.828 79.5375 635.529 76.6271 636.051 75.6714C636.573 74.7157 637 72.7391 637 71.279C637 69.8189 638.427 66.323 640.171 63.5102C641.914 60.6975 644.79 55.8507 646.561 52.7395C649.512 47.5562 658.183 36.331 666.911 26.3957C671.168 21.5493 679.681 15.0075 682.75 14.2237C683.987 13.9077 685 13.2279 685 12.713C685 12.1982 685.562 11.8817 686.25 12.0097C686.937 12.1376 688.914 11.9071 690.642 11.4974C693.062 10.9237 693.671 10.3229 693.295 8.88281C692.884 7.31137 693.577 6.89739 697.637 6.28822C700.293 5.88956 703.957 4.94044 705.777 4.17913C707.598 3.41783 709.538 3.07321 710.088 3.41329C710.638 3.75336 711.717 3.50917 712.486 2.87063C713.254 2.23209 716.047 1.6419 718.692 1.55913C721.336 1.47637 723.821 0.947752 724.212 0.384391C724.682 -0.290274 726.605 -0.0428199 729.847 1.10937C735.633 3.16583 738.675 3.33403 739.243 1.62895C739.547 0.715008 740.29 0.817255 742.135 2.0271C744.481 3.56522 748.31 3.58793 752 2.08561C752.825 1.74974 754.85 1.36455 756.5 1.22963C758.15 1.09471 761.026 0.670057 762.892 0.285997C765.222 -0.193607 766.075 -0.0730739 765.615 0.670779C765.163 1.40223 766.868 1.74465 770.867 1.72551C777.214 1.69513 781.057 3.20793 784.722 7.17963C785.945 8.50414 788.978 10.1575 791.464 10.8538C793.949 11.5501 796.999 13.1287 798.241 14.3618C799.483 15.595 802.75 17.7566 805.5 19.1653C813.802 23.4183 821.475 31.5639 836.328 51.8917C838.137 54.3684 840.194 57.9708 840.898 59.8971C841.602 61.8234 842.835 64.6335 843.64 66.1418C845.648 69.9082 847.23 78.7694 847.706 88.9167C848.185 99.1247 848.216 97.8149 847.061 116.435C845.885 135.379 844.495 145.794 842.324 151.91L840.617 156.719L843.282 159.889C846.153 163.302 850 174.329 850 179.143C850 184.237 845.124 204.126 841.74 212.831C839.707 218.063 837.227 222.442 835.083 224.589C831.657 228.021 831.023 228.276 825.538 228.428L822.577 228.511L819.729 242.521C815.538 263.137 815.292 264.26 814.244 267.537C813.299 270.491 813.407 284.045 814.497 299.342C815.335 311.09 818.564 325.657 821.408 330.513C824.979 336.61 833.31 343.87 842.561 348.945C881.3 370.198 918.04 388.259 940.5 397.091C958.326 404.1 961.426 405.656 974 413.905C988.465 423.393 999.846 432.809 1004.47 439.113C1013.31 451.16 1019.74 472.411 1025.07 507.199C1027.14 520.661 1027.32 525.613 1027.54 575.746C1027.77 627.445 1028.75 650.531 1031.93 679.563C1037.61 731.289 1040.65 752.923 1044.16 766.374C1046.63 775.839 1047.06 777.006 1054.08 793.393C1060.27 807.839 1072.59 844.429 1075.98 858.437C1077.12 863.115 1079.4 876.174 1081.07 887.456C1082.73 898.739 1085.85 918.777 1088.01 931.986C1091.93 956.061 1095.09 977.063 1097.05 992.027C1099.08 1007.62 1101.19 1019.9 1103.12 1027.43C1105.35 1036.1 1115.48 1068.11 1120.73 1083.09C1122.66 1088.59 1125.72 1098.27 1127.53 1104.6C1133.4 1125.18 1135.68 1130.21 1142.42 1137.42C1145.76 1140.99 1155.18 1149.77 1163.35 1156.91C1172.51 1164.92 1179.22 1171.63 1180.85 1174.41C1184.03 1179.81 1190.62 1188.29 1197.07 1195.24C1199.66 1198.03 1202.73 1202.18 1203.9 1204.47C1206.96 1210.48 1211.22 1214.96 1217.49 1218.76C1222.36 1221.72 1223 1222.48 1223 1225.37C1223 1230.35 1219.64 1232.09 1211.38 1231.43C1201.22 1230.61 1192.55 1225.81 1181.25 1214.73L1172 1205.65V1211.8C1172 1218.28 1172.43 1221.35 1176.57 1244.7C1180.78 1268.44 1180.96 1270.36 1180.98 1291.51C1181 1314.98 1180.35 1317.87 1174.46 1320.33C1171.16 1321.71 1170.53 1321.69 1167.17 1320.04C1162.26 1317.64 1161.37 1314.56 1160.02 1295.09C1158.35 1270.96 1157.71 1266.73 1154.38 1257.84C1153.07 1254.33 1152 1249.94 1152 1248.08C1152 1246.22 1151.55 1244.7 1151 1244.7C1149.51 1244.7 1149.79 1251.1 1151.58 1258C1153.58 1265.73 1153.9 1285.08 1152.25 1297.94C1151.56 1303.29 1151 1313.47 1151 1320.56C1151 1332.78 1150.87 1333.6 1148.61 1336.05C1145.48 1339.42 1139.59 1340.57 1136.1 1338.49C1131.29 1335.62 1131.01 1333.93 1131.34 1310.24C1131.65 1288.72 1131.18 1278.4 1129.04 1260.25C1127.31 1245.5 1125.86 1247.31 1126.62 1263.28C1127.07 1272.65 1126.92 1278.46 1126.17 1280.77C1124.48 1286.02 1123.03 1300.68 1122.69 1316.13C1122.39 1329.46 1122.28 1330.11 1119.95 1332C1116.73 1334.61 1109.36 1333.8 1106.66 1330.54C1104.93 1328.44 1104.86 1326.06 1105.4 1285.84C1105.95 1244.53 1105.75 1240.69 1103.03 1240.69C1102.63 1240.69 1102.23 1244.59 1102.14 1249.35C1102.05 1254.1 1101.24 1260.75 1100.34 1264.11C1099.44 1267.47 1098.61 1272.47 1098.5 1275.22C1098.17 1283.6 1096.86 1296.02 1095.89 1299.89C1094.34 1306.07 1086.77 1306.99 1082.66 1301.48C1079.93 1297.83 1079.37 1286.01 1081.14 1269.71C1082.88 1253.69 1082.89 1233.74 1081.15 1226.94C1080.41 1224.05 1079.51 1221.87 1079.15 1222.09C1078.79 1222.31 1078.41 1220.28 1078.29 1217.59C1078.17 1214.89 1077.62 1210.98 1077.06 1208.9C1073.55 1195.86 1072.07 1181.47 1072.28 1162.49C1072.49 1144.11 1072.39 1142.92 1070.25 1138.92C1069.01 1136.6 1068 1134.02 1068 1133.19C1068 1131.73 1060.92 1114.85 1045.66 1079.95C1041.54 1070.53 1035.7 1056.34 1032.68 1048.43C1029.67 1040.53 1022.17 1022.12 1016.01 1007.54C1002.04 974.431 999.402 967.586 987.461 933.487C977.879 906.125 975.064 898.889 969.163 886.455C965.717 879.194 956.031 852.654 954.007 844.927C953.203 841.859 952.613 832.765 952.482 821.411C952.289 804.833 951.99 801.906 949.616 793.393C944.05 773.437 942.823 746.214 940 730.779C937.57 717.494 925.529 571.672 924.5 565.168C922.125 550.158 924.115 567.669 926.115 588.183C927.62 603.62 927.424 668.55 926.5 674.742C925.576 680.933 925.837 699.358 924 709.265C914.484 760.577 910.177 804.819 917.156 839.424C926.417 885.338 927.81 896.069 929.041 930.986C929.565 945.846 930.434 959.805 930.973 962.006C931.512 964.208 931.963 967.907 931.976 970.227C931.993 973.301 932.505 974.715 933.863 975.442C934.887 975.991 936.207 977.695 936.796 979.23C937.924 982.168 940.965 996.926 941.496 1002.03C941.668 1003.68 942.482 1007.17 943.306 1009.79C944.13 1012.4 944.568 1014.54 944.28 1014.54C943.991 1014.54 944.248 1015.14 944.851 1015.86C945.454 1016.59 945.918 1018.5 945.883 1020.12C945.847 1021.73 946.344 1025.3 946.988 1028.05C951.645 1047.97 953.029 1055.58 953.991 1066.58C955.242 1080.88 956.612 1092.38 958.516 1104.6C959.246 1109.28 960.624 1120.3 961.579 1129.09C963.103 1143.11 963.168 1147.26 962.11 1163.11C960.341 1189.59 955.328 1242.32 952.45 1264.71C951.071 1275.44 949.07 1296.83 948.003 1312.24C945.729 1345.1 937.739 1422.16 935.494 1432.89C934.637 1436.98 933.098 1443.03 932.072 1446.33C926.351 1464.76 923.94 1501.97 925.914 1541.4C927.03 1563.67 927.931 1568.74 935.336 1594.43C939.865 1610.14 946.535 1643.95 948.466 1660.98C951.161 1684.75 950.403 1723.89 946.491 1763.05C944.974 1778.23 943.332 1809.35 942.479 1839.1C942.203 1848.73 941.522 1862.92 940.967 1870.62C937.568 1917.76 937.138 1938.47 939.424 1944.95C940.207 1947.18 940.621 1949.22 940.344 1949.5C940.067 1949.77 940.612 1951.18 941.556 1952.62C945.104 1958.04 947.058 1968.17 947.645 1984.2L948.213 1999.71L952.821 2005.71C957.66 2012.02 965.982 2027.56 969.969 2037.73C971.262 2041.04 972.924 2044.45 973.661 2045.32C974.397 2046.19 975 2047.31 975 2047.83C975 2048.34 977.061 2051.23 979.581 2054.25C985.825 2061.74 997.82 2079.6 1000.15 2084.87C1001.2 2087.24 1003.1 2090.44 1004.39 2091.98C1010.49 2099.3 1012.98 2108.1 1012.96 2122.29C1012.94 2131.68 1012.65 2133.38 1010.22 2138.3C1008.66 2141.45 1006.43 2144.32 1005 2145.02C1002.26 2146.34 1001.3 2149.2 1001.12 2156.56C1000.97 2162.37 998.183 2165.83 994.413 2164.89C992.143 2164.32 992 2164.53 992 2168.58C992 2174.64 989.854 2177.33 985.01 2177.33C981.536 2177.33 981.1 2177.61 980.816 2180.05C980.077 2186.4 966.534 2190.06 961.449 2185.28L959.269 2183.24L958.682 2186.17C957.527 2191.95 942.487 2196.17 935 2192.81Z"/>
</mask>
<g filter="url(#filter1_i_0_1)">
<path d="M935 2192.81C930.83 2190.93 924.649 2185.19 921.571 2180.33C920.352 2178.4 918.547 2173.9 917.56 2170.32C916.573 2166.75 914.539 2161.34 913.039 2158.31C909.529 2151.23 906.378 2131.75 905.027 2108.78C904.121 2093.38 903.69 2090.78 900.47 2081.26C898.513 2075.48 896.286 2068.05 895.519 2064.75C894.752 2061.45 893.687 2056.95 893.152 2054.74C892.617 2052.54 891.862 2046.46 891.474 2041.24C890.939 2034.01 889.918 2029.45 887.219 2022.22C885.266 2016.99 883.351 2009.79 882.963 2006.21C882.523 2002.16 880.924 1996.74 878.713 1991.84C873.695 1980.69 873.239 1974.83 876.563 1964.18C881.321 1948.94 880.981 1926.67 875.455 1891.63C872.665 1873.95 864.816 1830.34 861.854 1816.08C857.69 1796.04 856.443 1791.48 846.066 1758.39C837.237 1730.23 836.676 1724.34 833.138 1622.45L832.27 1597.44L827.026 1583.93C824.141 1576.51 820.193 1567.28 818.25 1563.42C812.716 1552.43 805.359 1530.32 803.079 1517.83C801.623 1509.86 800.995 1502.24 800.982 1492.4C800.972 1484.68 800.534 1474.3 800.007 1469.35C799.481 1464.4 798.563 1452.46 797.967 1442.83C797.372 1433.2 796.023 1419.24 794.97 1411.81C792.531 1394.59 781.542 1341.35 774.007 1310.24C770.432 1295.48 767.308 1279.54 765.902 1268.89C764.643 1259.36 763.138 1250.93 762.557 1250.16C761.688 1249.01 760.291 1249.54 754.702 1253.16C749.224 1256.7 746.7 1257.68 741.702 1258.21C738.029 1258.6 734.364 1258.43 732.714 1257.8C730.605 1256.99 729.84 1257.03 729.564 1257.97C729.363 1258.65 728.006 1268.21 726.547 1279.22C725.089 1290.23 722.357 1306.21 720.478 1314.74C715.764 1336.14 710.225 1371.13 709.033 1387.04C708.487 1394.34 707.378 1404.81 706.57 1410.31C705.044 1420.69 702.961 1467.95 702.953 1492.36C702.946 1513.95 701.648 1523.46 696.6 1538.9C694.17 1546.33 690.292 1556.91 687.981 1562.41C685.67 1567.92 682.479 1577.04 680.89 1582.69C676.802 1597.21 676.84 1600.1 682.023 1669.55C682.601 1677.3 683.072 1690.36 683.07 1698.57C683.066 1719.48 681.373 1729.34 668.999 1780.56C666.871 1789.37 664.384 1800.62 663.472 1805.58C662.56 1810.53 660.913 1818.86 659.813 1824.09C658.713 1829.32 657.436 1836.3 656.974 1839.6C656.513 1842.9 655.225 1850.56 654.113 1856.61C651.374 1871.52 649 1898.39 649 1914.48C649 1925.3 649.456 1929.5 651.508 1937.6C655.233 1952.29 655.575 1959.22 652.991 1967.69C645.315 1992.83 643.962 2000.35 643.011 2023.22C642.299 2040.32 641.864 2043.79 639.487 2051.24C637.996 2055.92 635.752 2061.77 634.501 2064.25C631.268 2070.65 629.803 2081.56 629.957 2098.08C630.03 2105.95 629.649 2113.83 629.11 2115.59C628.571 2117.35 626.949 2123.47 625.505 2129.2C624.062 2134.93 621.962 2141.42 620.84 2143.62C619.717 2145.82 618.139 2149.92 617.332 2152.72C616.525 2155.52 614.266 2160.18 612.313 2163.06C609.291 2167.53 608.005 2168.54 603.699 2169.82C593.16 2172.95 584.523 2171.1 580.422 2164.84C578.113 2161.31 578.893 2150.39 581.87 2144.56C583.581 2141.2 583.737 2140.3 582.606 2140.3C580.898 2140.3 574.656 2151.14 573.099 2156.81C572.495 2159.01 571.663 2161.32 571.25 2161.93C569.974 2163.82 564.247 2166.32 561.198 2166.32C557.062 2166.32 551.684 2162.39 550.543 2158.54C549.787 2155.99 549.048 2155.31 547.016 2155.31C543.508 2155.31 540.06 2152.7 538.437 2148.81C537.487 2146.54 536.235 2145.4 534.231 2145C530.859 2144.33 529 2140.91 529 2135.37C529 2133.02 528.359 2131.01 527.338 2130.17C524.36 2127.71 521 2118.58 521 2112.95C521 2106.6 526.51 2081.78 528.7 2078.26C529.557 2076.88 531.298 2074.63 532.568 2073.26C533.838 2071.88 536.688 2067.15 538.9 2062.75C541.113 2058.35 546.079 2050.92 549.936 2046.24C557.423 2037.16 559.377 2034.44 565.736 2024.22C568.504 2019.78 570.117 2015.76 570.83 2011.54C571.529 2007.4 574.012 2001.13 578.363 1992.53C585.414 1978.58 586.058 1975.55 584.597 1963.18C583.816 1956.57 584.19 1954.55 590.518 1931.19C592.758 1922.92 592.364 1915.32 588.057 1883.63C585.888 1867.67 583.163 1844.93 582.001 1833.09C580.84 1821.26 579.029 1803.93 577.977 1794.57C576.925 1785.21 575.577 1772.83 574.983 1767.05C574.389 1761.27 572.284 1745.06 570.306 1731.03C567.056 1707.96 566.7 1703.25 566.605 1681.99C566.503 1659.21 566.742 1655.82 571.085 1618.45C572.434 1606.84 574.331 1595.29 578.156 1575.42C581.163 1559.8 581.217 1559.01 580.369 1542.9C579.891 1533.82 579.5 1513.1 579.5 1496.87C579.5 1464.57 580.037 1468.57 572.857 1447.33C569.324 1436.88 565.154 1413.66 560.95 1381.03C559.835 1372.37 557.814 1358.69 556.461 1350.63C555.107 1342.58 554 1334.46 554 1332.59C554 1330.72 552.899 1323.35 551.553 1316.21C550.208 1309.08 548.181 1296.48 547.049 1288.23C545.917 1279.97 544.312 1268.71 543.484 1263.21C537.368 1222.6 528.881 1138.22 530.433 1133.46C530.672 1132.72 531.114 1117.26 531.416 1099.1C532.372 1041.6 535.577 1012.04 543.089 991.446C549.251 974.549 551.21 958.378 551.503 921.979C551.699 897.664 551.835 896.681 560.142 859.437C566.094 832.75 567.391 819.084 567.457 782.385C567.502 756.785 567.362 676.298 564 655.228C559.877 635.786 559.5 540.984 559.5 565C559.5 578.604 560.5 732.28 539.368 786.388C536.97 794.943 536.684 797.747 536.511 814.407C536.405 824.589 535.815 834.946 535.199 837.422C533.607 843.824 524.21 871.179 521.965 875.948C518.703 882.878 512.32 898.63 509.193 907.47C495.303 946.731 482.265 979.673 471.766 1002.03C457.919 1031.53 451.354 1047.99 438.051 1086.59C429.541 1111.28 423.373 1128.76 421.977 1132.12C421.52 1133.22 420.912 1136.15 420.625 1138.63C420.339 1141.1 419.583 1146.51 418.946 1150.63C418.259 1155.09 418.072 1161.19 418.486 1165.64C420.138 1183.39 420.406 1180.63 413.483 1217.18C409.292 1239.3 409.189 1237.06 416.042 1273.22C417.085 1278.72 418.065 1288.33 418.219 1294.56C418.5 1305.89 418.498 1305.9 415.694 1308.32C414.134 1309.67 411.614 1310.74 410.017 1310.74C405.103 1310.74 403.516 1307.38 401.089 1291.85C399.889 1284.17 398.034 1274.83 396.967 1271.1C395.9 1267.36 394.302 1260.37 393.417 1255.55C391.471 1244.95 389.81 1242.94 386.462 1247.14C385.196 1248.73 383.917 1251.42 383.619 1253.12C383.321 1254.82 382.797 1268.81 382.455 1284.22C381.585 1323.33 380.921 1330.29 377.756 1333.46C374.787 1336.43 369.27 1336.82 365.477 1334.33C362.615 1332.46 362.494 1330.82 364.054 1315.25C364.853 1307.26 364.714 1302.24 363.366 1290.4C361.97 1278.14 361.88 1274.23 362.845 1267.89C364.223 1258.83 364.341 1252.7 363.137 1252.7C362.662 1252.7 362.01 1255.52 361.687 1258.96C361.365 1262.4 360.613 1269.49 360.018 1274.72C359.422 1279.95 358.757 1296.07 358.538 1310.56C358.214 1332.08 357.861 1337.32 356.605 1339.24C353.757 1343.59 345.117 1343.71 341.254 1339.46C339.474 1337.5 339.164 1335.14 338.398 1317.75C337.322 1293.31 337.277 1276.91 338.267 1269.39C338.778 1265.52 338.694 1263.78 338.017 1264.2C337.458 1264.55 337 1266.13 337 1267.71C337 1269.3 336.55 1270.88 336 1271.22C335.382 1271.6 335 1280.24 335 1293.82C335 1317.19 334.308 1321.44 330.15 1323.67C326.509 1325.62 322.23 1324.93 318.766 1321.83L315.5 1318.91L314.884 1296.56C314.545 1284.27 314.667 1270.84 315.155 1266.71C315.643 1262.58 316.998 1251.1 318.167 1241.2C320.431 1222.01 321.613 1202.67 320.521 1202.67C319.837 1202.67 309.78 1211.31 302.666 1218.01C295.514 1224.74 286.912 1227.71 274.701 1227.65C266.486 1227.61 263 1225.71 263 1221.26C263 1219.19 263.785 1218.31 266.75 1217.05C276.831 1212.75 279 1211.62 279 1210.68C279 1210.12 283.806 1204.82 289.679 1198.92C295.553 1193.01 302.335 1185.47 304.752 1182.16C312.513 1171.54 313.277 1170.65 314.577 1170.65C315.28 1170.65 316.804 1169.44 317.963 1167.96C319.123 1166.49 322.029 1163.9 324.421 1162.21C335.239 1154.57 350.943 1140.4 353.601 1135.88C358.206 1128.05 359.999 1123.87 360.019 1120.91C360.036 1118.37 361.488 1112.4 367.031 1092.09C368.083 1088.24 369.857 1081.74 370.974 1077.64C372.091 1073.55 373.688 1066.26 374.522 1061.45C375.356 1056.64 377.571 1048.46 379.445 1043.28C384.885 1028.24 387.728 1014.4 395.523 965.008C400.908 930.887 403.798 914.247 406.474 901.966C407.794 895.912 410.289 882.853 412.019 872.946C414.972 856.04 420.612 833.927 425.164 821.411C426.264 818.384 428.881 810.954 430.979 804.9C433.077 798.846 436.14 790.966 437.786 787.389C446.39 768.694 449.819 754.559 452.958 724.846C454.121 713.839 456.179 695.827 457.531 684.819C464.367 629.151 464.503 627.221 464.233 589.255C463.841 534.211 465.548 514.187 473.617 479.18C478.263 459.021 483.227 443.777 486.974 438.157C494.137 427.414 503.896 419.929 518.083 414.298C525.793 411.237 529.192 409.505 539 403.638C542.025 401.828 548.922 398.701 554.327 396.689C577.552 388.045 632.414 361.665 646.5 352.368C656.153 345.998 662.35 339.886 664.586 334.531C666.755 329.336 669.005 313.333 669.515 299.464C669.962 287.305 669.875 286.594 667.136 280.19C661.088 266.05 657.797 254.412 654.55 235.684C652.885 226.083 652.495 225.009 650.673 225.009C650.008 225.009 647.731 223.83 645.612 222.389C640.491 218.907 635.09 207.271 631.608 192.218C628.62 179.297 628.403 174.363 630.476 166.399C632.037 160.403 633.074 158.635 636.817 155.593C638.817 153.967 639.04 153.147 638.451 149.583C638.075 147.312 637.372 144.7 636.888 143.776C636.403 142.853 635.518 136.324 634.92 129.267C634.323 122.209 633.355 115.442 632.771 114.227C632.018 112.662 632.033 109.166 632.824 102.219C633.537 95.9526 633.59 92.2988 632.97 92.0856C631.726 91.6579 631.706 88.2162 632.942 87.4515C633.46 87.131 634.158 84.7403 634.493 82.1389C634.828 79.5375 635.529 76.6271 636.051 75.6714C636.573 74.7157 637 72.7391 637 71.279C637 69.8189 638.427 66.323 640.171 63.5102C641.914 60.6975 644.79 55.8507 646.561 52.7395C649.512 47.5562 658.183 36.331 666.911 26.3957C671.168 21.5493 679.681 15.0075 682.75 14.2237C683.987 13.9077 685 13.2279 685 12.713C685 12.1982 685.562 11.8817 686.25 12.0097C686.937 12.1376 688.914 11.9071 690.642 11.4974C693.062 10.9237 693.671 10.3229 693.295 8.88281C692.884 7.31137 693.577 6.89739 697.637 6.28822C700.293 5.88956 703.957 4.94044 705.777 4.17913C707.598 3.41783 709.538 3.07321 710.088 3.41329C710.638 3.75336 711.717 3.50917 712.486 2.87063C713.254 2.23209 716.047 1.6419 718.692 1.55913C721.336 1.47637 723.821 0.947752 724.212 0.384391C724.682 -0.290274 726.605 -0.0428199 729.847 1.10937C735.633 3.16583 738.675 3.33403 739.243 1.62895C739.547 0.715008 740.29 0.817255 742.135 2.0271C744.481 3.56522 748.31 3.58793 752 2.08561C752.825 1.74974 754.85 1.36455 756.5 1.22963C758.15 1.09471 761.026 0.670057 762.892 0.285997C765.222 -0.193607 766.075 -0.0730739 765.615 0.670779C765.163 1.40223 766.868 1.74465 770.867 1.72551C777.214 1.69513 781.057 3.20793 784.722 7.17963C785.945 8.50414 788.978 10.1575 791.464 10.8538C793.949 11.5501 796.999 13.1287 798.241 14.3618C799.483 15.595 802.75 17.7566 805.5 19.1653C813.802 23.4183 821.475 31.5639 836.328 51.8917C838.137 54.3684 840.194 57.9708 840.898 59.8971C841.602 61.8234 842.835 64.6335 843.64 66.1418C845.648 69.9082 847.23 78.7694 847.706 88.9167C848.185 99.1247 848.216 97.8149 847.061 116.435C845.885 135.379 844.495 145.794 842.324 151.91L840.617 156.719L843.282 159.889C846.153 163.302 850 174.329 850 179.143C850 184.237 845.124 204.126 841.74 212.831C839.707 218.063 837.227 222.442 835.083 224.589C831.657 228.021 831.023 228.276 825.538 228.428L822.577 228.511L819.729 242.521C815.538 263.137 815.292 264.26 814.244 267.537C813.299 270.491 813.407 284.045 814.497 299.342C815.335 311.09 818.564 325.657 821.408 330.513C824.979 336.61 833.31 343.87 842.561 348.945C881.3 370.198 918.04 388.259 940.5 397.091C958.326 404.1 961.426 405.656 974 413.905C988.465 423.393 999.846 432.809 1004.47 439.113C1013.31 451.16 1019.74 472.411 1025.07 507.199C1027.14 520.661 1027.32 525.613 1027.54 575.746C1027.77 627.445 1028.75 650.531 1031.93 679.563C1037.61 731.289 1040.65 752.923 1044.16 766.374C1046.63 775.839 1047.06 777.006 1054.08 793.393C1060.27 807.839 1072.59 844.429 1075.98 858.437C1077.12 863.115 1079.4 876.174 1081.07 887.456C1082.73 898.739 1085.85 918.777 1088.01 931.986C1091.93 956.061 1095.09 977.063 1097.05 992.027C1099.08 1007.62 1101.19 1019.9 1103.12 1027.43C1105.35 1036.1 1115.48 1068.11 1120.73 1083.09C1122.66 1088.59 1125.72 1098.27 1127.53 1104.6C1133.4 1125.18 1135.68 1130.21 1142.42 1137.42C1145.76 1140.99 1155.18 1149.77 1163.35 1156.91C1172.51 1164.92 1179.22 1171.63 1180.85 1174.41C1184.03 1179.81 1190.62 1188.29 1197.07 1195.24C1199.66 1198.03 1202.73 1202.18 1203.9 1204.47C1206.96 1210.48 1211.22 1214.96 1217.49 1218.76C1222.36 1221.72 1223 1222.48 1223 1225.37C1223 1230.35 1219.64 1232.09 1211.38 1231.43C1201.22 1230.61 1192.55 1225.81 1181.25 1214.73L1172 1205.65V1211.8C1172 1218.28 1172.43 1221.35 1176.57 1244.7C1180.78 1268.44 1180.96 1270.36 1180.98 1291.51C1181 1314.98 1180.35 1317.87 1174.46 1320.33C1171.16 1321.71 1170.53 1321.69 1167.17 1320.04C1162.26 1317.64 1161.37 1314.56 1160.02 1295.09C1158.35 1270.96 1157.71 1266.73 1154.38 1257.84C1153.07 1254.33 1152 1249.94 1152 1248.08C1152 1246.22 1151.55 1244.7 1151 1244.7C1149.51 1244.7 1149.79 1251.1 1151.58 1258C1153.58 1265.73 1153.9 1285.08 1152.25 1297.94C1151.56 1303.29 1151 1313.47 1151 1320.56C1151 1332.78 1150.87 1333.6 1148.61 1336.05C1145.48 1339.42 1139.59 1340.57 1136.1 1338.49C1131.29 1335.62 1131.01 1333.93 1131.34 1310.24C1131.65 1288.72 1131.18 1278.4 1129.04 1260.25C1127.31 1245.5 1125.86 1247.31 1126.62 1263.28C1127.07 1272.65 1126.92 1278.46 1126.17 1280.77C1124.48 1286.02 1123.03 1300.68 1122.69 1316.13C1122.39 1329.46 1122.28 1330.11 1119.95 1332C1116.73 1334.61 1109.36 1333.8 1106.66 1330.54C1104.93 1328.44 1104.86 1326.06 1105.4 1285.84C1105.95 1244.53 1105.75 1240.69 1103.03 1240.69C1102.63 1240.69 1102.23 1244.59 1102.14 1249.35C1102.05 1254.1 1101.24 1260.75 1100.34 1264.11C1099.44 1267.47 1098.61 1272.47 1098.5 1275.22C1098.17 1283.6 1096.86 1296.02 1095.89 1299.89C1094.34 1306.07 1086.77 1306.99 1082.66 1301.48C1079.93 1297.83 1079.37 1286.01 1081.14 1269.71C1082.88 1253.69 1082.89 1233.74 1081.15 1226.94C1080.41 1224.05 1079.51 1221.87 1079.15 1222.09C1078.79 1222.31 1078.41 1220.28 1078.29 1217.59C1078.17 1214.89 1077.62 1210.98 1077.06 1208.9C1073.55 1195.86 1072.07 1181.47 1072.28 1162.49C1072.49 1144.11 1072.39 1142.92 1070.25 1138.92C1069.01 1136.6 1068 1134.02 1068 1133.19C1068 1131.73 1060.92 1114.85 1045.66 1079.95C1041.54 1070.53 1035.7 1056.34 1032.68 1048.43C1029.67 1040.53 1022.17 1022.12 1016.01 1007.54C1002.04 974.431 999.402 967.586 987.461 933.487C977.879 906.125 975.064 898.889 969.163 886.455C965.717 879.194 956.031 852.654 954.007 844.927C953.203 841.859 952.613 832.765 952.482 821.411C952.289 804.833 951.99 801.906 949.616 793.393C944.05 773.437 942.823 746.214 940 730.779C937.57 717.494 925.529 571.672 924.5 565.168C922.125 550.158 924.115 567.669 926.115 588.183C927.62 603.62 927.424 668.55 926.5 674.742C925.576 680.933 925.837 699.358 924 709.265C914.484 760.577 910.177 804.819 917.156 839.424C926.417 885.338 927.81 896.069 929.041 930.986C929.565 945.846 930.434 959.805 930.973 962.006C931.512 964.208 931.963 967.907 931.976 970.227C931.993 973.301 932.505 974.715 933.863 975.442C934.887 975.991 936.207 977.695 936.796 979.23C937.924 982.168 940.965 996.926 941.496 1002.03C941.668 1003.68 942.482 1007.17 943.306 1009.79C944.13 1012.4 944.568 1014.54 944.28 1014.54C943.991 1014.54 944.248 1015.14 944.851 1015.86C945.454 1016.59 945.918 1018.5 945.883 1020.12C945.847 1021.73 946.344 1025.3 946.988 1028.05C951.645 1047.97 953.029 1055.58 953.991 1066.58C955.242 1080.88 956.612 1092.38 958.516 1104.6C959.246 1109.28 960.624 1120.3 961.579 1129.09C963.103 1143.11 963.168 1147.26 962.11 1163.11C960.341 1189.59 955.328 1242.32 952.45 1264.71C951.071 1275.44 949.07 1296.83 948.003 1312.24C945.729 1345.1 937.739 1422.16 935.494 1432.89C934.637 1436.98 933.098 1443.03 932.072 1446.33C926.351 1464.76 923.94 1501.97 925.914 1541.4C927.03 1563.67 927.931 1568.74 935.336 1594.43C939.865 1610.14 946.535 1643.95 948.466 1660.98C951.161 1684.75 950.403 1723.89 946.491 1763.05C944.974 1778.23 943.332 1809.35 942.479 1839.1C942.203 1848.73 941.522 1862.92 940.967 1870.62C937.568 1917.76 937.138 1938.47 939.424 1944.95C940.207 1947.18 940.621 1949.22 940.344 1949.5C940.067 1949.77 940.612 1951.18 941.556 1952.62C945.104 1958.04 947.058 1968.17 947.645 1984.2L948.213 1999.71L952.821 2005.71C957.66 2012.02 965.982 2027.56 969.969 2037.73C971.262 2041.04 972.924 2044.45 973.661 2045.32C974.397 2046.19 975 2047.31 975 2047.83C975 2048.34 977.061 2051.23 979.581 2054.25C985.825 2061.74 997.82 2079.6 1000.15 2084.87C1001.2 2087.24 1003.1 2090.44 1004.39 2091.98C1010.49 2099.3 1012.98 2108.1 1012.96 2122.29C1012.94 2131.68 1012.65 2133.38 1010.22 2138.3C1008.66 2141.45 1006.43 2144.32 1005 2145.02C1002.26 2146.34 1001.3 2149.2 1001.12 2156.56C1000.97 2162.37 998.183 2165.83 994.413 2164.89C992.143 2164.32 992 2164.53 992 2168.58C992 2174.64 989.854 2177.33 985.01 2177.33C981.536 2177.33 981.1 2177.61 980.816 2180.05C980.077 2186.4 966.534 2190.06 961.449 2185.28L959.269 2183.24L958.682 2186.17C957.527 2191.95 942.487 2196.17 935 2192.81Z" fill="#FBC02D" fill-opacity="0.7"/>
</g>
<path d="M935 2192.81C930.83 2190.93 924.649 2185.19 921.571 2180.33C920.352 2178.4 918.547 2173.9 917.56 2170.32C916.573 2166.75 914.539 2161.34 913.039 2158.31C909.529 2151.23 906.378 2131.75 905.027 2108.78C904.121 2093.38 903.69 2090.78 900.47 2081.26C898.513 2075.48 896.286 2068.05 895.519 2064.75C894.752 2061.45 893.687 2056.95 893.152 2054.74C892.617 2052.54 891.862 2046.46 891.474 2041.24C890.939 2034.01 889.918 2029.45 887.219 2022.22C885.266 2016.99 883.351 2009.79 882.963 2006.21C882.523 2002.16 880.924 1996.74 878.713 1991.84C873.695 1980.69 873.239 1974.83 876.563 1964.18C881.321 1948.94 880.981 1926.67 875.455 1891.63C872.665 1873.95 864.816 1830.34 861.854 1816.08C857.69 1796.04 856.443 1791.48 846.066 1758.39C837.237 1730.23 836.676 1724.34 833.138 1622.45L832.27 1597.44L827.026 1583.93C824.141 1576.51 820.193 1567.28 818.25 1563.42C812.716 1552.43 805.359 1530.32 803.079 1517.83C801.623 1509.86 800.995 1502.24 800.982 1492.4C800.972 1484.68 800.534 1474.3 800.007 1469.35C799.481 1464.4 798.563 1452.46 797.967 1442.83C797.372 1433.2 796.023 1419.24 794.97 1411.81C792.531 1394.59 781.542 1341.35 774.007 1310.24C770.432 1295.48 767.308 1279.54 765.902 1268.89C764.643 1259.36 763.138 1250.93 762.557 1250.16C761.688 1249.01 760.291 1249.54 754.702 1253.16C749.224 1256.7 746.7 1257.68 741.702 1258.21C738.029 1258.6 734.364 1258.43 732.714 1257.8C730.605 1256.99 729.84 1257.03 729.564 1257.97C729.363 1258.65 728.006 1268.21 726.547 1279.22C725.089 1290.23 722.357 1306.21 720.478 1314.74C715.764 1336.14 710.225 1371.13 709.033 1387.04C708.487 1394.34 707.378 1404.81 706.57 1410.31C705.044 1420.69 702.961 1467.95 702.953 1492.36C702.946 1513.95 701.648 1523.46 696.6 1538.9C694.17 1546.33 690.292 1556.91 687.981 1562.41C685.67 1567.92 682.479 1577.04 680.89 1582.69C676.802 1597.21 676.84 1600.1 682.023 1669.55C682.601 1677.3 683.072 1690.36 683.07 1698.57C683.066 1719.48 681.373 1729.34 668.999 1780.56C666.871 1789.37 664.384 1800.62 663.472 1805.58C662.56 1810.53 660.913 1818.86 659.813 1824.09C658.713 1829.32 657.436 1836.3 656.974 1839.6C656.513 1842.9 655.225 1850.56 654.113 1856.61C651.374 1871.52 649 1898.39 649 1914.48C649 1925.3 649.456 1929.5 651.508 1937.6C655.233 1952.29 655.575 1959.22 652.991 1967.69C645.315 1992.83 643.962 2000.35 643.011 2023.22C642.299 2040.32 641.864 2043.79 639.487 2051.24C637.996 2055.92 635.752 2061.77 634.501 2064.25C631.268 2070.65 629.803 2081.56 629.957 2098.08C630.03 2105.95 629.649 2113.83 629.11 2115.59C628.571 2117.35 626.949 2123.47 625.505 2129.2C624.062 2134.93 621.962 2141.42 620.84 2143.62C619.717 2145.82 618.139 2149.92 617.332 2152.72C616.525 2155.52 614.266 2160.18 612.313 2163.06C609.291 2167.53 608.005 2168.54 603.699 2169.82C593.16 2172.95 584.523 2171.1 580.422 2164.84C578.113 2161.31 578.893 2150.39 581.87 2144.56C583.581 2141.2 583.737 2140.3 582.606 2140.3C580.898 2140.3 574.656 2151.14 573.099 2156.81C572.495 2159.01 571.663 2161.32 571.25 2161.93C569.974 2163.82 564.247 2166.32 561.198 2166.32C557.062 2166.32 551.684 2162.39 550.543 2158.54C549.787 2155.99 549.048 2155.31 547.016 2155.31C543.508 2155.31 540.06 2152.7 538.437 2148.81C537.487 2146.54 536.235 2145.4 534.231 2145C530.859 2144.33 529 2140.91 529 2135.37C529 2133.02 528.359 2131.01 527.338 2130.17C524.36 2127.71 521 2118.58 521 2112.95C521 2106.6 526.51 2081.78 528.7 2078.26C529.557 2076.88 531.298 2074.63 532.568 2073.26C533.838 2071.88 536.688 2067.15 538.9 2062.75C541.113 2058.35 546.079 2050.92 549.936 2046.24C557.423 2037.16 559.377 2034.44 565.736 2024.22C568.504 2019.78 570.117 2015.76 570.83 2011.54C571.529 2007.4 574.012 2001.13 578.363 1992.53C585.414 1978.58 586.058 1975.55 584.597 1963.18C583.816 1956.57 584.19 1954.55 590.518 1931.19C592.758 1922.92 592.364 1915.32 588.057 1883.63C585.888 1867.67 583.163 1844.93 582.001 1833.09C580.84 1821.26 579.029 1803.93 577.977 1794.57C576.925 1785.21 575.577 1772.83 574.983 1767.05C574.389 1761.27 572.284 1745.06 570.306 1731.03C567.056 1707.96 566.7 1703.25 566.605 1681.99C566.503 1659.21 566.742 1655.82 571.085 1618.45C572.434 1606.84 574.331 1595.29 578.156 1575.42C581.163 1559.8 581.217 1559.01 580.369 1542.9C579.891 1533.82 579.5 1513.1 579.5 1496.87C579.5 1464.57 580.037 1468.57 572.857 1447.33C569.324 1436.88 565.154 1413.66 560.95 1381.03C559.835 1372.37 557.814 1358.69 556.461 1350.63C555.107 1342.58 554 1334.46 554 1332.59C554 1330.72 552.899 1323.35 551.553 1316.21C550.208 1309.08 548.181 1296.48 547.049 1288.23C545.917 1279.97 544.312 1268.71 543.484 1263.21C537.368 1222.6 528.881 1138.22 530.433 1133.46C530.672 1132.72 531.114 1117.26 531.416 1099.1C532.372 1041.6 535.577 1012.04 543.089 991.446C549.251 974.549 551.21 958.378 551.503 921.979C551.699 897.664 551.835 896.681 560.142 859.437C566.094 832.75 567.391 819.084 567.457 782.385C567.502 756.785 567.362 676.298 564 655.228C559.877 635.786 559.5 540.984 559.5 565C559.5 578.604 560.5 732.28 539.368 786.388C536.97 794.943 536.684 797.747 536.511 814.407C536.405 824.589 535.815 834.946 535.199 837.422C533.607 843.824 524.21 871.179 521.965 875.948C518.703 882.878 512.32 898.63 509.193 907.47C495.303 946.731 482.265 979.673 471.766 1002.03C457.919 1031.53 451.354 1047.99 438.051 1086.59C429.541 1111.28 423.373 1128.76 421.977 1132.12C421.52 1133.22 420.912 1136.15 420.625 1138.63C420.339 1141.1 419.583 1146.51 418.946 1150.63C418.259 1155.09 418.072 1161.19 418.486 1165.64C420.138 1183.39 420.406 1180.63 413.483 1217.18C409.292 1239.3 409.189 1237.06 416.042 1273.22C417.085 1278.72 418.065 1288.33 418.219 1294.56C418.5 1305.89 418.498 1305.9 415.694 1308.32C414.134 1309.67 411.614 1310.74 410.017 1310.74C405.103 1310.74 403.516 1307.38 401.089 1291.85C399.889 1284.17 398.034 1274.83 396.967 1271.1C395.9 1267.36 394.302 1260.37 393.417 1255.55C391.471 1244.95 389.81 1242.94 386.462 1247.14C385.196 1248.73 383.917 1251.42 383.619 1253.12C383.321 1254.82 382.797 1268.81 382.455 1284.22C381.585 1323.33 380.921 1330.29 377.756 1333.46C374.787 1336.43 369.27 1336.82 365.477 1334.33C362.615 1332.46 362.494 1330.82 364.054 1315.25C364.853 1307.26 364.714 1302.24 363.366 1290.4C361.97 1278.14 361.88 1274.23 362.845 1267.89C364.223 1258.83 364.341 1252.7 363.137 1252.7C362.662 1252.7 362.01 1255.52 361.687 1258.96C361.365 1262.4 360.613 1269.49 360.018 1274.72C359.422 1279.95 358.757 1296.07 358.538 1310.56C358.214 1332.08 357.861 1337.32 356.605 1339.24C353.757 1343.59 345.117 1343.71 341.254 1339.46C339.474 1337.5 339.164 1335.14 338.398 1317.75C337.322 1293.31 337.277 1276.91 338.267 1269.39C338.778 1265.52 338.694 1263.78 338.017 1264.2C337.458 1264.55 337 1266.13 337 1267.71C337 1269.3 336.55 1270.88 336 1271.22C335.382 1271.6 335 1280.24 335 1293.82C335 1317.19 334.308 1321.44 330.15 1323.67C326.509 1325.62 322.23 1324.93 318.766 1321.83L315.5 1318.91L314.884 1296.56C314.545 1284.27 314.667 1270.84 315.155 1266.71C315.643 1262.58 316.998 1251.1 318.167 1241.2C320.431 1222.01 321.613 1202.67 320.521 1202.67C319.837 1202.67 309.78 1211.31 302.666 1218.01C295.514 1224.74 286.912 1227.71 274.701 1227.65C266.486 1227.61 263 1225.71 263 1221.26C263 1219.19 263.785 1218.31 266.75 1217.05C276.831 1212.75 279 1211.62 279 1210.68C279 1210.12 283.806 1204.82 289.679 1198.92C295.553 1193.01 302.335 1185.47 304.752 1182.16C312.513 1171.54 313.277 1170.65 314.577 1170.65C315.28 1170.65 316.804 1169.44 317.963 1167.96C319.123 1166.49 322.029 1163.9 324.421 1162.21C335.239 1154.57 350.943 1140.4 353.601 1135.88C358.206 1128.05 359.999 1123.87 360.019 1120.91C360.036 1118.37 361.488 1112.4 367.031 1092.09C368.083 1088.24 369.857 1081.74 370.974 1077.64C372.091 1073.55 373.688 1066.26 374.522 1061.45C375.356 1056.64 377.571 1048.46 379.445 1043.28C384.885 1028.24 387.728 1014.4 395.523 965.008C400.908 930.887 403.798 914.247 406.474 901.966C407.794 895.912 410.289 882.853 412.019 872.946C414.972 856.04 420.612 833.927 425.164 821.411C426.264 818.384 428.881 810.954 430.979 804.9C433.077 798.846 436.14 790.966 437.786 787.389C446.39 768.694 449.819 754.559 452.958 724.846C454.121 713.839 456.179 695.827 457.531 684.819C464.367 629.151 464.503 627.221 464.233 589.255C463.841 534.211 465.548 514.187 473.617 479.18C478.263 459.021 483.227 443.777 486.974 438.157C494.137 427.414 503.896 419.929 518.083 414.298C525.793 411.237 529.192 409.505 539 403.638C542.025 401.828 548.922 398.701 554.327 396.689C577.552 388.045 632.414 361.665 646.5 352.368C656.153 345.998 662.35 339.886 664.586 334.531C666.755 329.336 669.005 313.333 669.515 299.464C669.962 287.305 669.875 286.594 667.136 280.19C661.088 266.05 657.797 254.412 654.55 235.684C652.885 226.083 652.495 225.009 650.673 225.009C650.008 225.009 647.731 223.83 645.612 222.389C640.491 218.907 635.09 207.271 631.608 192.218C628.62 179.297 628.403 174.363 630.476 166.399C632.037 160.403 633.074 158.635 636.817 155.593C638.817 153.967 639.04 153.147 638.451 149.583C638.075 147.312 637.372 144.7 636.888 143.776C636.403 142.853 635.518 136.324 634.92 129.267C634.323 122.209 633.355 115.442 632.771 114.227C632.018 112.662 632.033 109.166 632.824 102.219C633.537 95.9526 633.59 92.2988 632.97 92.0856C631.726 91.6579 631.706 88.2162 632.942 87.4515C633.46 87.131 634.158 84.7403 634.493 82.1389C634.828 79.5375 635.529 76.6271 636.051 75.6714C636.573 74.7157 637 72.7391 637 71.279C637 69.8189 638.427 66.323 640.171 63.5102C641.914 60.6975 644.79 55.8507 646.561 52.7395C649.512 47.5562 658.183 36.331 666.911 26.3957C671.168 21.5493 679.681 15.0075 682.75 14.2237C683.987 13.9077 685 13.2279 685 12.713C685 12.1982 685.562 11.8817 686.25 12.0097C686.937 12.1376 688.914 11.9071 690.642 11.4974C693.062 10.9237 693.671 10.3229 693.295 8.88281C692.884 7.31137 693.577 6.89739 697.637 6.28822C700.293 5.88956 703.957 4.94044 705.777 4.17913C707.598 3.41783 709.538 3.07321 710.088 3.41329C710.638 3.75336 711.717 3.50917 712.486 2.87063C713.254 2.23209 716.047 1.6419 718.692 1.55913C721.336 1.47637 723.821 0.947752 724.212 0.384391C724.682 -0.290274 726.605 -0.0428199 729.847 1.10937C735.633 3.16583 738.675 3.33403 739.243 1.62895C739.547 0.715008 740.29 0.817255 742.135 2.0271C744.481 3.56522 748.31 3.58793 752 2.08561C752.825 1.74974 754.85 1.36455 756.5 1.22963C758.15 1.09471 761.026 0.670057 762.892 0.285997C765.222 -0.193607 766.075 -0.0730739 765.615 0.670779C765.163 1.40223 766.868 1.74465 770.867 1.72551C777.214 1.69513 781.057 3.20793 784.722 7.17963C785.945 8.50414 788.978 10.1575 791.464 10.8538C793.949 11.5501 796.999 13.1287 798.241 14.3618C799.483 15.595 802.75 17.7566 805.5 19.1653C813.802 23.4183 821.475 31.5639 836.328 51.8917C838.137 54.3684 840.194 57.9708 840.898 59.8971C841.602 61.8234 842.835 64.6335 843.64 66.1418C845.648 69.9082 847.23 78.7694 847.706 88.9167C848.185 99.1247 848.216 97.8149 847.061 116.435C845.885 135.379 844.495 145.794 842.324 151.91L840.617 156.719L843.282 159.889C846.153 163.302 850 174.329 850 179.143C850 184.237 845.124 204.126 841.74 212.831C839.707 218.063 837.227 222.442 835.083 224.589C831.657 228.021 831.023 228.276 825.538 228.428L822.577 228.511L819.729 242.521C815.538 263.137 815.292 264.26 814.244 267.537C813.299 270.491 813.407 284.045 814.497 299.342C815.335 311.09 818.564 325.657 821.408 330.513C824.979 336.61 833.31 343.87 842.561 348.945C881.3 370.198 918.04 388.259 940.5 397.091C958.326 404.1 961.426 405.656 974 413.905C988.465 423.393 999.846 432.809 1004.47 439.113C1013.31 451.16 1019.74 472.411 1025.07 507.199C1027.14 520.661 1027.32 525.613 1027.54 575.746C1027.77 627.445 1028.75 650.531 1031.93 679.563C1037.61 731.289 1040.65 752.923 1044.16 766.374C1046.63 775.839 1047.06 777.006 1054.08 793.393C1060.27 807.839 1072.59 844.429 1075.98 858.437C1077.12 863.115 1079.4 876.174 1081.07 887.456C1082.73 898.739 1085.85 918.777 1088.01 931.986C1091.93 956.061 1095.09 977.063 1097.05 992.027C1099.08 1007.62 1101.19 1019.9 1103.12 1027.43C1105.35 1036.1 1115.48 1068.11 1120.73 1083.09C1122.66 1088.59 1125.72 1098.27 1127.53 1104.6C1133.4 1125.18 1135.68 1130.21 1142.42 1137.42C1145.76 1140.99 1155.18 1149.77 1163.35 1156.91C1172.51 1164.92 1179.22 1171.63 1180.85 1174.41C1184.03 1179.81 1190.62 1188.29 1197.07 1195.24C1199.66 1198.03 1202.73 1202.18 1203.9 1204.47C1206.96 1210.48 1211.22 1214.96 1217.49 1218.76C1222.36 1221.72 1223 1222.48 1223 1225.37C1223 1230.35 1219.64 1232.09 1211.38 1231.43C1201.22 1230.61 1192.55 1225.81 1181.25 1214.73L1172 1205.65V1211.8C1172 1218.28 1172.43 1221.35 1176.57 1244.7C1180.78 1268.44 1180.96 1270.36 1180.98 1291.51C1181 1314.98 1180.35 1317.87 1174.46 1320.33C1171.16 1321.71 1170.53 1321.69 1167.17 1320.04C1162.26 1317.64 1161.37 1314.56 1160.02 1295.09C1158.35 1270.96 1157.71 1266.73 1154.38 1257.84C1153.07 1254.33 1152 1249.94 1152 1248.08C1152 1246.22 1151.55 1244.7 1151 1244.7C1149.51 1244.7 1149.79 1251.1 1151.58 1258C1153.58 1265.73 1153.9 1285.08 1152.25 1297.94C1151.56 1303.29 1151 1313.47 1151 1320.56C1151 1332.78 1150.87 1333.6 1148.61 1336.05C1145.48 1339.42 1139.59 1340.57 1136.1 1338.49C1131.29 1335.62 1131.01 1333.93 1131.34 1310.24C1131.65 1288.72 1131.18 1278.4 1129.04 1260.25C1127.31 1245.5 1125.86 1247.31 1126.62 1263.28C1127.07 1272.65 1126.92 1278.46 1126.17 1280.77C1124.48 1286.02 1123.03 1300.68 1122.69 1316.13C1122.39 1329.46 1122.28 1330.11 1119.95 1332C1116.73 1334.61 1109.36 1333.8 1106.66 1330.54C1104.93 1328.44 1104.86 1326.06 1105.4 1285.84C1105.95 1244.53 1105.75 1240.69 1103.03 1240.69C1102.63 1240.69 1102.23 1244.59 1102.14 1249.35C1102.05 1254.1 1101.24 1260.75 1100.34 1264.11C1099.44 1267.47 1098.61 1272.47 1098.5 1275.22C1098.17 1283.6 1096.86 1296.02 1095.89 1299.89C1094.34 1306.07 1086.77 1306.99 1082.66 1301.48C1079.93 1297.83 1079.37 1286.01 1081.14 1269.71C1082.88 1253.69 1082.89 1233.74 1081.15 1226.94C1080.41 1224.05 1079.51 1221.87 1079.15 1222.09C1078.79 1222.31 1078.41 1220.28 1078.29 1217.59C1078.17 1214.89 1077.62 1210.98 1077.06 1208.9C1073.55 1195.86 1072.07 1181.47 1072.28 1162.49C1072.49 1144.11 1072.39 1142.92 1070.25 1138.92C1069.01 1136.6 1068 1134.02 1068 1133.19C1068 1131.73 1060.92 1114.85 1045.66 1079.95C1041.54 1070.53 1035.7 1056.34 1032.68 1048.43C1029.67 1040.53 1022.17 1022.12 1016.01 1007.54C1002.04 974.431 999.402 967.586 987.461 933.487C977.879 906.125 975.064 898.889 969.163 886.455C965.717 879.194 956.031 852.654 954.007 844.927C953.203 841.859 952.613 832.765 952.482 821.411C952.289 804.833 951.99 801.906 949.616 793.393C944.05 773.437 942.823 746.214 940 730.779C937.57 717.494 925.529 571.672 924.5 565.168C922.125 550.158 924.115 567.669 926.115 588.183C927.62 603.62 927.424 668.55 926.5 674.742C925.576 680.933 925.837 699.358 924 709.265C914.484 760.577 910.177 804.819 917.156 839.424C926.417 885.338 927.81 896.069 929.041 930.986C929.565 945.846 930.434 959.805 930.973 962.006C931.512 964.208 931.963 967.907 931.976 970.227C931.993 973.301 932.505 974.715 933.863 975.442C934.887 975.991 936.207 977.695 936.796 979.23C937.924 982.168 940.965 996.926 941.496 1002.03C941.668 1003.68 942.482 1007.17 943.306 1009.79C944.13 1012.4 944.568 1014.54 944.28 1014.54C943.991 1014.54 944.248 1015.14 944.851 1015.86C945.454 1016.59 945.918 1018.5 945.883 1020.12C945.847 1021.73 946.344 1025.3 946.988 1028.05C951.645 1047.97 953.029 1055.58 953.991 1066.58C955.242 1080.88 956.612 1092.38 958.516 1104.6C959.246 1109.28 960.624 1120.3 961.579 1129.09C963.103 1143.11 963.168 1147.26 962.11 1163.11C960.341 1189.59 955.328 1242.32 952.45 1264.71C951.071 1275.44 949.07 1296.83 948.003 1312.24C945.729 1345.1 937.739 1422.16 935.494 1432.89C934.637 1436.98 933.098 1443.03 932.072 1446.33C926.351 1464.76 923.94 1501.97 925.914 1541.4C927.03 1563.67 927.931 1568.74 935.336 1594.43C939.865 1610.14 946.535 1643.95 948.466 1660.98C951.161 1684.75 950.403 1723.89 946.491 1763.05C944.974 1778.23 943.332 1809.35 942.479 1839.1C942.203 1848.73 941.522 1862.92 940.967 1870.62C937.568 1917.76 937.138 1938.47 939.424 1944.95C940.207 1947.18 940.621 1949.22 940.344 1949.5C940.067 1949.77 940.612 1951.18 941.556 1952.62C945.104 1958.04 947.058 1968.17 947.645 1984.2L948.213 1999.71L952.821 2005.71C957.66 2012.02 965.982 2027.56 969.969 2037.73C971.262 2041.04 972.924 2044.45 973.661 2045.32C974.397 2046.19 975 2047.31 975 2047.83C975 2048.34 977.061 2051.23 979.581 2054.25C985.825 2061.74 997.82 2079.6 1000.15 2084.87C1001.2 2087.24 1003.1 2090.44 1004.39 2091.98C1010.49 2099.3 1012.98 2108.1 1012.96 2122.29C1012.94 2131.68 1012.65 2133.38 1010.22 2138.3C1008.66 2141.45 1006.43 2144.32 1005 2145.02C1002.26 2146.34 1001.3 2149.2 1001.12 2156.56C1000.97 2162.37 998.183 2165.83 994.413 2164.89C992.143 2164.32 992 2164.53 992 2168.58C992 2174.64 989.854 2177.33 985.01 2177.33C981.536 2177.33 981.1 2177.61 980.816 2180.05C980.077 2186.4 966.534 2190.06 961.449 2185.28L959.269 2183.24L958.682 2186.17C957.527 2191.95 942.487 2196.17 935 2192.81Z" stroke="#616161" stroke-width="6" mask="url(#path-1-inside-1_0_1)"/>
</g>
<path d="M550 680H464" stroke="#E30000" stroke-opacity="0.8" stroke-width="6" stroke-linecap="round" stroke-dasharray="10 10"/>
<path d="M706 1341H562" stroke="#E30000" stroke-opacity="0.8" stroke-width="6" stroke-linecap="round" stroke-dasharray="10 10"/>
<path d="M916 560H566" stroke="#E30000" stroke-opacity="0.8" stroke-width="6" stroke-linecap="round" stroke-dasharray="10 10"/>
<path d="M933 988H550" stroke="#E30000" stroke-opacity="0.8" stroke-width="6" stroke-linecap="round" stroke-dasharray="10 10"/>
<path d="M37 680L62 694.434L62 665.566L37 680ZM132.534 680L132.534 682.5L132.534 680ZM459 677.5L132.534 677.5L132.534 682.5L459 682.5L459 677.5ZM132.534 677.5L59.5 677.5L59.5 682.5L132.534 682.5L132.534 677.5Z" fill="#616161"/>
<path d="M0 1341L25 1355.43L25 1326.57L0 1341ZM230.534 1341L230.534 1343.5L230.534 1341ZM557 1338.5L230.534 1338.5L230.534 1343.5L557 1343.5L557 1338.5ZM230.534 1338.5L22.5 1338.5L22.5 1343.5L230.534 1343.5L230.534 1338.5Z" fill="#616161"/>
<path d="M1166 286L1141 271.566L1141 300.434L1166 286ZM839.534 286L839.534 288.5L839.534 286ZM1143.5 283.5L839.534 283.5L839.534 288.5L1143.5 288.5L1143.5 283.5ZM839.534 283.5L813 283.5L813 288.5L839.534 288.5L839.534 283.5Z" fill="#616161"/>
<path d="M1359 559L1334 544.566L1334 573.434L1359 559ZM949.504 559L949.504 556.5L949.504 559ZM1336.5 556.5L949.504 556.5L949.504 561.5L1336.5 561.5L1336.5 556.5ZM949.504 556.5L923 556.5L923 561.5L949.504 561.5L949.504 556.5Z" fill="#616161"/>
<path d="M1452 988L1427 973.566L1427 1002.43L1452 988ZM964.508 988L964.508 990.5L964.508 988ZM1429.5 985.5L964.508 985.5L964.508 990.5L1429.5 990.5L1429.5 985.5ZM964.508 985.5L938 985.5L938 990.5L964.508 990.5L964.508 985.5Z" fill="#616161"/>
<path d="M807 285H676" stroke="#E30000" stroke-opacity="0.8" stroke-width="6" stroke-linecap="round" stroke-dasharray="10 10"/>
<defs>
<filter id="filter0_d_0_1" x="259" y="0" width="968" height="2202" filterUnits="userSpaceOnUse" color-interpolation-filters="sRGB">
<feFlood flood-opacity="0" result="BackgroundImageFix"/>
<feColorMatrix in="SourceAlpha" type="matrix" values="0 0 0 0 0 0 0 0 0 0 0 0 0 0 0 0 0 0 127 0" result="hardAlpha"/>
<feOffset dy="4"/>
<feGaussianBlur stdDeviation="2"/>
<feComposite in2="hardAlpha" operator="out"/>
<feColorMatrix type="matrix" values="0 0 0 0 0 0 0 0 0 0 0 0 0 0 0 0 0 0 0.25 0"/>
<feBlend mode="normal" in2="BackgroundImageFix" result="effect1_dropShadow_0_1"/>
<feBlend mode="normal" in="SourceGraphic" in2="effect1_dropShadow_0_1" result="shape"/>
</filter>
<filter id="filter1_i_0_1" x="263" y="0" width="960" height="2198" filterUnits="userSpaceOnUse" color-interpolation-filters="sRGB">
<feFlood flood-opacity="0" result="BackgroundImageFix"/>
<feBlend mode="normal" in="SourceGraphic" in2="BackgroundImageFix" result="shape"/>
<feColorMatrix in="SourceAlpha" type="matrix" values="0 0 0 0 0 0 0 0 0 0 0 0 0 0 0 0 0 0 127 0" result="hardAlpha"/>
<feOffset dy="4"/>
<feGaussianBlur stdDeviation="2"/>
<feComposite in2="hardAlpha" operator="arithmetic" k2="-1" k3="1"/>
<feColorMatrix type="matrix" values="0 0 0 0 0 0 0 0 0 0 0 0 0 0 0 0 0 0 0.25 0"/>
<feBlend mode="normal" in2="shape" result="effect1_innerShadow_0_1"/>
</filter>
</defs>
</svg>
